# xmcd
# 
# Track frame offsets:
#     150
#     21935
#     59637
#     80220
#     116280
#     142800
#     172977
#     207025
# 
# Disc length: 2952
# 
# Revision: 3
# Processed by: cddbd v1.5.2PL0 Copyright (c) Steve Scherf et al.
# Submitted via: fre:ac v1.0.31
# 
DISCID=670b8608
DTITLE=Mike Mainieri - Wanderlust
DYEAR=1992
DGENRE=Jazz
TTITLE0=Bullet Train
TTITLE1=Bamboo
TTITLE2=Flying Colours
TTITLE3=L'Image
TTITLE4=Pep's
TTITLE5=Crossed Wires
TTITLE6=Sara's Touch
TTITLE7=Wanderlust
EXTD=YEAR: 1992
EXTT0=
EXTT1=
EXTT2=
EXTT3=
EXTT4=
EXTT5=
EXTT6=
EXTT7=
PLAYORDER=
